<svg width="344" height="319" viewBox="0 0 344 319" fill="none" xmlns="http://www.w3.org/2000/svg">
<path d="M4 229.5C19.6 226.3 24.5 225.833 25 226L95 224H122.5L232.5 223H323.5C328 223 340 224.3 342 225.5" stroke="#BC5254" stroke-width="3" stroke-miterlimit="3.32551" stroke-linecap="round"/>
<path d="M242 2L236.5 99.5L234.5 223.5L231.5 306.5" stroke="#BC5254" stroke-width="3" stroke-miterlimit="3.32551" stroke-linecap="round"/>
<path d="M93.4999 7.5C92.4999 33 93.0561 86.7704 93.4999 99M93.4999 99C94.2439 119.5 97.4999 186.667 97.9999 223M93.4999 99L97.9999 223M97.9999 223C97.9999 247 97.1999 305.8 104 317" stroke="#BC5254" stroke-width="3" stroke-miterlimit="3.32551" stroke-linecap="round"/>
<path d="M2 106L17 103.5L90 100H154.5L239 99L329.5 101.5" stroke="#BC5254" stroke-width="3" stroke-miterlimit="3.32551" stroke-linecap="round"/>
</svg>
